<?xml version="1.0" encoding="UTF-8" standalone="no"?>
<!-- Created with Inkscape (http://www.inkscape.org/) -->

<svg
   xmlns:dc="http://purl.org/dc/elements/1.1/"
   xmlns:cc="http://creativecommons.org/ns#"
   xmlns:rdf="http://www.w3.org/1999/02/22-rdf-syntax-ns#"
   xmlns:svg="http://www.w3.org/2000/svg"
   xmlns="http://www.w3.org/2000/svg"
   xmlns:sodipodi="http://sodipodi.sourceforge.net/DTD/sodipodi-0.dtd"
   xmlns:inkscape="http://www.inkscape.org/namespaces/inkscape"
   width="50"
   height="50"
   viewBox="0 0 13.229167 13.229167"
   version="1.1"
   id="svg8"
   inkscape:version="0.92.4 (5da689c313, 2019-01-14)"
   sodipodi:docname="javascript.svg">
  <defs
     id="defs2" />
  <sodipodi:namedview
     id="base"
     pagecolor="#ffffff"
     bordercolor="#666666"
     borderopacity="1.0"
     inkscape:pageopacity="0.0"
     inkscape:pageshadow="2"
     inkscape:zoom="16.4"
     inkscape:cx="25"
     inkscape:cy="25"
     inkscape:document-units="mm"
     inkscape:current-layer="layer1"
     showgrid="false"
     units="px"
     inkscape:window-width="1920"
     inkscape:window-height="1017"
     inkscape:window-x="-8"
     inkscape:window-y="-8"
     inkscape:window-maximized="1" />
  <metadata
     id="metadata5">
    <rdf:RDF>
      <cc:Work
         rdf:about="">
        <dc:format>image/svg+xml</dc:format>
        <dc:type
           rdf:resource="http://purl.org/dc/dcmitype/StillImage" />
        <dc:title></dc:title>
      </cc:Work>
    </rdf:RDF>
  </metadata>
  <g
     inkscape:label="Capa 1"
     inkscape:groupmode="layer"
     id="layer1"
     transform="translate(0,-283.77083)">
    <g
       id="g79"
       transform="matrix(0.04166667,0,0,0.04166667,-5.782383,278.65641)">
      <path
         inkscape:connector-curvature="0"
         id="path74"
         d="M 138.77718,122.74606 H 456.27717 V 440.24605 H 138.77718 Z"
         style="fill:#f7e018;fill-opacity:1;stroke:none;stroke-width:0.26458332px;stroke-linecap:butt;stroke-linejoin:miter;stroke-opacity:1" />
      <path
         inkscape:connector-curvature="0"
         id="path70"
         d="m 260.08522,414.39288 c -2.44057,-0.23438 -8.09422,-1.4902 -10.68452,-2.37331 -7.90277,-2.69427 -15.07791,-7.68019 -20.1623,-14.01055 -0.80311,-0.99991 -1.54388,-1.90017 -1.64614,-2.00056 -0.66649,-0.65424 -4.74225,-7.68249 -4.74225,-8.17754 0,-0.12025 0.14888,-0.21863 0.33085,-0.21863 0.18197,0 3.42636,-1.90484 7.20976,-4.23298 3.7834,-2.32814 7.45386,-4.54754 8.15658,-4.93201 0.70273,-0.38447 1.52409,-0.86079 1.82526,-1.0585 1.81407,-1.19086 6.03297,-3.64845 6.26322,-3.64845 0.15039,0 0.56429,0.61602 0.91977,1.36894 2.02275,4.28425 5.64671,8.72007 8.81172,10.78576 3.30981,2.16019 5.58585,2.81239 9.81465,2.81239 6.59183,0 10.75852,-1.92065 13.26741,-6.11567 2.6733,-4.46992 2.53905,-1.25874 2.53905,-60.73346 v -53.25267 h 14.79381 14.79382 l -0.10976,54.11882 c -0.0841,41.44798 -0.21676,54.67437 -0.56674,56.49165 -1.03779,5.38868 -1.31788,6.53235 -2.35231,9.60518 -1.39864,4.15472 -3.55755,8.35056 -5.56838,10.82211 -6.20688,7.62898 -12.97155,11.58694 -24.09337,14.09685 -2.5338,0.57181 -15.09954,1.00802 -18.80013,0.65263 z"
         style="opacity:1;fill:#000000;fill-opacity:1;stroke:none;stroke-width:0.36505106" />
      <path
         inkscape:connector-curvature="0"
         id="path72"
         d="m 376.5365,414.58531 c -8.41251,-0.60701 -15.91397,-2.44373 -22.99821,-5.63107 -1.70662,-0.76784 -3.36228,-1.6128 -3.67926,-1.87769 -0.31698,-0.26489 -0.69755,-0.48161 -0.84572,-0.48161 -0.14817,0 -0.80783,-0.41068 -1.46592,-0.91263 -0.65808,-0.50194 -1.38635,-0.91262 -1.61837,-0.91262 -0.23202,0 -0.42186,-0.12886 -0.42186,-0.28635 0,-0.15749 -0.4597,-0.55789 -1.02155,-0.88979 -1.55759,-0.92009 -3.98816,-3.04662 -6.97187,-6.09975 -3.04313,-3.11395 -4.80429,-5.39481 -7.41163,-9.5987 -1.43621,-2.31564 -1.70893,-2.99821 -1.36399,-3.41383 0.23713,-0.28572 0.56766,-0.51949 0.73452,-0.51949 0.16685,0 1.91267,-0.95838 3.8796,-2.12973 4.47309,-2.66384 12.49258,-7.32115 14.89921,-8.65271 1.00037,-0.55349 2.14288,-1.22865 2.53892,-1.50035 0.39603,-0.2717 0.83659,-0.494 0.97902,-0.494 0.14243,0 1.27648,1.40949 2.52012,3.13219 3.42487,4.74417 6.92655,8.09653 11.11294,10.63903 1.76792,1.0737 4.25765,2.04436 7.41196,2.88967 3.11973,0.83604 3.87802,0.89762 9.3088,0.75595 6.2169,-0.16218 8.09416,-0.5204 11.72249,-2.23687 4.64138,-2.19572 7.81118,-6.6593 8.1565,-11.48561 0.41097,-5.74391 -1.94855,-10.20896 -7.33811,-13.88629 -1.60667,-1.09624 -10.14043,-5.50527 -10.65556,-5.50527 -0.11892,0 -1.06848,-0.38821 -2.11013,-0.8627 -3.89384,-1.77371 -5.25384,-2.37094 -8.09978,-3.55696 -11.7982,-4.91676 -21.71477,-11.22248 -26.55437,-16.88531 -1.05329,-1.23245 -2.00673,-2.32296 -2.11876,-2.42334 -1.24485,-1.11549 -5.01646,-8.23681 -5.80018,-10.95154 -0.26083,-0.9035 -0.63148,-2.13554 -0.82367,-2.73788 -0.66715,-2.09091 -1.36753,-8.05108 -1.3727,-11.68163 -0.0177,-12.38864 5.26602,-23.49745 14.58409,-30.66275 7.19629,-5.53372 18.3937,-8.95501 29.26631,-8.94212 5.60504,0.007 14.79258,1.54661 18.73791,3.14074 7.75674,3.13418 13.87021,7.79637 18.61502,14.19601 2.27781,3.07225 3.8356,5.51184 3.8356,6.00676 0,0.32302 -4.53638,3.40943 -10.22142,6.95433 -1.10428,0.68857 -2.08992,1.33947 -2.19031,1.44645 -0.25397,0.27064 -1.5323,1.0624 -2.19031,1.35662 -0.30116,0.13466 -0.62971,0.34636 -0.7301,0.47046 -0.32767,0.40504 -6.96767,4.4816 -7.07407,4.34305 -0.0569,-0.0741 -0.89688,-1.3325 -1.86654,-2.79634 -4.3088,-6.50479 -9.85422,-9.5748 -17.27444,-9.56335 -6.33328,0.01 -10.93802,2.53297 -13.46005,7.37549 -0.92513,1.77633 -1.00256,2.24675 -0.97842,5.94454 0.0219,3.35979 0.16066,4.30712 0.84943,5.80087 2.18113,4.7303 7.36091,8.17201 20.70325,13.75629 2.9595,1.23866 5.63419,2.38624 5.94375,2.55017 0.30956,0.16393 1.54848,0.73684 2.75314,1.27314 2.26739,1.00938 8.34663,3.98577 9.3088,4.55755 13.03711,7.74751 18.73748,13.53947 22.64041,23.00418 2.22818,5.40339 2.72452,8.48219 2.70427,16.77478 -0.0187,7.66088 -0.18573,8.85631 -1.98916,14.23699 -1.51057,4.5069 -5.05217,10.1294 -8.47586,13.45593 -3.03103,2.94503 -4.72937,4.43157 -5.06296,4.43157 -0.15027,0 -0.49724,0.20534 -0.77103,0.45631 -0.72378,0.66345 -1.5814,1.1669 -4.84759,2.84567 -6.06818,3.11896 -12.75609,4.87212 -21.538,5.64592 -6.44508,0.5679 -5.97632,0.56246 -11.86416,0.13762 z"
         style="opacity:1;fill:#000000;fill-opacity:1;stroke:none;stroke-width:0.36505106" />
    </g>
  </g>
</svg>
