<?xml version="1.0" encoding="UTF-8" standalone="no"?>
<!-- Created with Inkscape (http://www.inkscape.org/) -->

<svg
   xmlns:dc="http://purl.org/dc/elements/1.1/"
   xmlns:cc="http://creativecommons.org/ns#"
   xmlns:rdf="http://www.w3.org/1999/02/22-rdf-syntax-ns#"
   xmlns:svg="http://www.w3.org/2000/svg"
   xmlns="http://www.w3.org/2000/svg"
   xmlns:sodipodi="http://sodipodi.sourceforge.net/DTD/sodipodi-0.dtd"
   xmlns:inkscape="http://www.inkscape.org/namespaces/inkscape"
   width="244.55084"
   height="127.80488"
   viewBox="0 0 64.704079 33.815042"
   version="1.1"
   id="svg8"
   inkscape:version="0.92.4 (5da689c313, 2019-01-14)"
   sodipodi:docname="mysql.svg">
  <defs
     id="defs2" />
  <sodipodi:namedview
     id="base"
     pagecolor="#ffffff"
     bordercolor="#666666"
     borderopacity="1.0"
     inkscape:pageopacity="0.0"
     inkscape:pageshadow="2"
     inkscape:zoom="2.05"
     inkscape:cx="306.95738"
     inkscape:cy="78.629232"
     inkscape:document-units="mm"
     inkscape:current-layer="layer1"
     showgrid="false"
     units="px"
     inkscape:window-width="1920"
     inkscape:window-height="1017"
     inkscape:window-x="-8"
     inkscape:window-y="-8"
     inkscape:window-maximized="1"
     fit-margin-top="0"
     fit-margin-left="0"
     fit-margin-right="0"
     fit-margin-bottom="0" />
  <metadata
     id="metadata5">
    <rdf:RDF>
      <cc:Work
         rdf:about="">
        <dc:format>image/svg+xml</dc:format>
        <dc:type
           rdf:resource="http://purl.org/dc/dcmitype/StillImage" />
        <dc:title></dc:title>
      </cc:Work>
    </rdf:RDF>
  </metadata>
  <g
     inkscape:label="Capa 1"
     inkscape:groupmode="layer"
     id="layer1"
     transform="translate(15.152588,-117.03331)">
    <g
       id="g320"
       transform="matrix(0.24164933,0,0,0.24164933,-30.190648,104.48113)">
      <path
         inkscape:connector-curvature="0"
         id="path298"
         d="m 114.47243,137.24445 c -3.39455,0.15141 -6.47745,2.34499 -7.76476,5.49554 -2.71228,4.81003 -4.42734,10.08295 -6.845481,15.04575 -2.398265,4.94505 -4.359669,10.07247 -6.758789,15.01767 -3.445717,-6.7053 -5.852556,-13.88943 -9.111921,-20.69891 -2.130395,-4.28152 -3.1914,-9.34809 -6.607377,-12.85441 -3.801929,-2.9452 -9.404629,-2.2159 -13.181053,0.35079 -2.469605,2.14387 -1.307378,5.75449 -1.712947,8.59645 -0.185171,10.30661 -0.175659,20.61547 -0.259183,30.92317 2.603227,0.63943 5.708078,0.0724 8.496705,0.26595 1.119571,-1.38299 0.132704,-4.19517 0.465582,-6.10533 0.153648,-9.60427 -0.322647,-19.24695 0.310152,-28.82906 0.530445,-0.2031 0.471675,1.33208 0.865569,1.70263 4.326131,9.62554 8.632121,19.28712 12.899422,28.91247 1.355266,2.75317 4.314498,4.94828 7.518409,4.66176 3.128187,0.29743 6.569481,-0.86463 7.926382,-3.92096 4.41088,-9.07479 8.34911,-18.39555 12.47377,-27.59344 0.42478,-1.08985 1.23959,-2.84721 1.78818,-3.35463 0.38172,11.4158 0.16574,22.84187 0.22531,34.26204 2.53758,0.63772 5.57311,0.0733 8.29564,0.26452 0.63772,-2.53758 0.0733,-5.57312 0.26452,-8.29564 -0.15204,-9.75303 0.33098,-19.53513 -0.34295,-29.27039 -0.0522,-3.22129 -3.88741,-3.49228 -6.22868,-4.19239 -0.89362,-0.18368 -1.79853,-0.39991 -2.7165,-0.38358 z"
         style="opacity:1;fill:#00618a;fill-opacity:1;stroke:none;stroke-width:0.36505106" />
      <path
         inkscape:connector-curvature="0"
         id="path300"
         d="m 131.62769,151.01015 c 0.10155,6.92795 -0.48794,13.89695 0.11052,20.80221 1.15174,3.72837 5.17611,5.72161 8.73627,6.50247 8.08522,0.88515 16.25393,0.48867 24.37286,0.77716 0.1222,2.18496 0.28177,5.66725 -2.47408,6.2793 -9.98486,0.77191 -20.15487,0.26533 -30.20797,0.42205 -1.27674,1.13637 -0.1595,4.01489 -0.5376,5.79452 2.53962,0.62107 5.57403,0.0258 8.29748,0.19496 8.23323,-0.24291 16.51794,0.22441 24.71897,-0.59068 3.38747,-0.92711 7.13211,-2.76785 8.54376,-6.17164 1.07799,-6.65281 0.35866,-13.46665 0.58465,-20.18048 0,-4.609 0,-9.21801 0,-13.82702 -2.5991,-0.63609 -5.69546,-0.0717 -8.47816,-0.26452 -1.07724,1.42102 -0.12572,4.18843 -0.44705,6.10534 0,5.63096 0,11.26192 0,16.89288 -7.3001,-0.19694 -14.67134,0.42336 -21.92445,-0.42494 -3.15975,-0.6014 -2.61805,-4.53315 -2.71171,-6.91807 -0.0434,-5.13009 -0.015,-10.26047 -0.0233,-15.39069 -2.53759,-0.63771 -5.57312,-0.0733 -8.29564,-0.26452 l -0.25953,0.25673 z"
         style="opacity:1;fill:#00618a;fill-opacity:1;stroke:none;stroke-width:0.36505106" />
      <path
         inkscape:connector-curvature="0"
         id="path302"
         d="m 205.35874,138.34102 c -5.65537,0.21835 -11.43311,-0.42624 -17.01195,0.64383 -3.55368,1.04602 -7.57638,3.6713 -7.32526,7.86001 0.0225,3.56461 -0.9843,8.23307 2.3001,10.72694 5.85705,4.48585 13.72628,3.76054 20.67744,3.92715 2.28248,0.0267 4.7368,-0.47704 6.39508,1.47559 1.65804,1.1025 0.46489,3.66397 0.81111,5.43329 0.42616,2.19913 -1.00674,4.24233 -3.20703,4.64299 -9.03411,0.55891 -18.13066,0.23709 -27.18917,0.33083 -0.46164,1.73203 -0.42153,4.26085 -0.006,5.99841 9.67163,-0.12138 19.39339,0.33188 29.04435,-0.46133 3.91458,-0.75977 8.34316,-2.67713 9.90771,-6.60158 0.54296,-3.56906 0.81529,-7.4128 -0.33511,-10.87666 -2.80433,-4.05634 -8.1368,-5.40718 -12.83307,-5.31 -4.90802,-0.43657 -9.95512,0.10821 -14.76607,-0.8588 -2.79071,-1.54848 -2.44391,-5.44801 -2.12614,-8.14876 0.20714,-1.97555 2.18078,-3.13159 4.00204,-2.85525 8.82083,-0.316 17.69846,-0.22914 26.54033,-0.36248 0.25609,-1.47378 0.86483,-4.70718 -0.36719,-5.56835 -4.83693,0.001 -9.67385,0.003 -14.51078,0.004 z"
         style="opacity:1;fill:#e48e00;fill-opacity:1;stroke:none;stroke-width:0.36505106" />
      <path
         inkscape:connector-curvature="0"
         id="path304"
         d="m 245.79599,138.33888 c -5.75933,0.31244 -12.62481,-0.79096 -17.19733,3.58991 -3.57676,3.10707 -2.47858,8.3487 -2.75571,12.52867 0.19017,5.96977 -0.27879,12.01409 0.57039,17.93456 1.94993,5.2095 8.1487,6.93631 13.21693,6.93204 5.58969,0.12751 11.17951,-0.12064 16.76859,-0.18858 2.37897,2.11889 4.65279,4.40583 7.09355,6.42547 3.20194,-0.0646 6.47567,0.17107 9.63321,-0.0791 -1.87494,-2.39239 -4.74098,-4.37555 -6.95538,-6.66687 -2.42424,-1.31303 -0.4016,-1.81415 0.9684,-2.74532 3.64715,-2.51201 2.53205,-7.41645 2.86731,-11.17858 -0.10403,-6.45896 0.68002,-13.02737 -0.46667,-19.4194 -1.61627,-5.06712 -7.53753,-7.10412 -12.41388,-6.97019 -3.77401,-0.1584 -7.55257,-0.18263 -11.32941,-0.16257 z m 7.70172,6.01907 c 2.60631,0.2055 6.56236,-0.50844 7.81936,2.52042 1.24318,5.10562 0.3772,10.56817 0.62412,15.81696 -0.37611,3.17207 0.90413,7.26318 -1.83977,9.6589 -1.29062,0.76925 -2.28956,-1.4434 -3.36674,-1.97427 -1.96407,-1.45174 -3.39923,-4.30152 -6.2187,-3.56923 -2.20975,0.1962 -4.71544,-0.35875 -6.79266,0.37717 1.139,2.00154 3.38966,3.41995 5.05653,5.06793 0.46342,0.27899 1.87557,1.46523 0.472,1.38606 -4.06139,-0.009 -8.61775,0.62288 -12.29766,-1.53008 -2.18827,-1.89369 -1.01949,-5.21126 -1.44075,-7.7223 0.0905,-5.82661 -0.41469,-11.72779 0.30924,-17.51114 1.54255,-3.11568 5.64707,-2.23947 8.47244,-2.50478 3.06741,-0.0288 6.13509,-0.01 9.20259,-0.0156 z"
         style="opacity:1;fill:#e48e00;fill-opacity:1;stroke:none;stroke-width:0.36505106" />
      <path
         inkscape:connector-curvature="0"
         id="path306"
         d="m 275.45781,138.60127 c 0.19191,10.56949 -0.42681,21.18156 0.45703,31.7245 0.40669,5.12622 5.7539,7.6246 10.21644,8.38833 9.50404,1.02962 19.10716,0.46656 28.6508,0.67235 0.46224,-1.7201 0.42187,-4.23789 0.008,-5.96595 -9.09347,-0.24077 -18.29042,0.17948 -27.32923,-0.52083 -2.86928,-0.38108 -2.945,-3.76765 -2.96558,-6.00663 -0.22153,-9.42833 -0.0641,-18.86151 -0.1124,-28.29177 -2.5991,-0.63609 -5.69547,-0.0717 -8.47817,-0.26452 -0.22147,-0.0868 -0.31524,0.13477 -0.44704,0.26452 z"
         style="opacity:1;fill:#e48e00;fill-opacity:1;stroke:none;stroke-width:0.36505106" />
      <path
         inkscape:connector-curvature="0"
         id="path312"
         d="m 236.29372,51.953467 c -3.48803,-0.222258 -6.18117,3.420334 -5.4661,6.711381 1.12485,4.708538 5.301,7.753154 7.47433,11.925522 1.64426,3.060726 2.21061,6.572641 3.54469,9.772509 1.31098,3.543967 3.18235,6.878066 5.53206,9.825096 0.5781,1.006237 -0.56208,1.970783 -0.57541,3.015181 -0.84503,3.466253 -2.22696,6.882784 -1.85077,10.510434 -0.18952,5.24719 0.2262,10.82628 3.26535,15.30292 1.4135,2.00082 3.26343,4.31942 5.98817,4.16321 2.73116,-0.23038 3.59996,-3.41535 3.75084,-5.69993 0.25423,-1.58303 0.47417,-3.19826 1.06086,-4.69888 1.90124,3.69473 3.77093,7.48757 6.8097,10.41242 1.39815,1.32955 2.64533,3.07302 4.4603,3.8165 0.88191,-0.44672 -0.41572,-1.41263 -0.64129,-1.96925 -4.39235,-5.99468 -7.74701,-12.70319 -10.38016,-19.62495 -0.65137,-1.10191 -1.50142,0.62133 -1.99798,1.08445 -3.074,3.37353 -3.01585,8.25934 -3.61644,12.5139 0.20352,1.2095 -1.24851,0.22526 -1.69136,-0.0743 -2.63136,-2.59289 -2.9819,-6.56 -3.97077,-9.93901 -0.2237,-3.09451 -0.38654,-6.30819 0.14268,-9.34058 0.76811,-1.752515 1.03156,-3.765378 1.79178,-5.55484 0.65185,-1.990801 1.58334,-4.671419 -0.33386,-6.296514 -3.71938,-3.472788 -4.88,-8.589253 -6.49305,-13.204894 -0.95511,-3.123316 -2.12361,-6.211175 -4.2384,-8.753247 -1.92589,-2.578224 -4.44878,-4.948004 -5.13084,-8.210251 -0.23095,-1.572694 1.35383,-2.584407 2.77742,-2.189064 3.58711,0.704601 6.93411,2.477349 9.89314,4.584835 1.09611,1.078965 2.34816,2.093253 3.9864,2.018154 4.67376,0.348628 9.35523,1.141018 13.46376,3.522093 6.87837,3.635934 12.87377,8.875364 17.77653,14.886813 3.43859,4.362114 6.498,9.046422 8.3499,14.308577 3.22807,6.508538 5.82682,13.336588 9.43788,19.648638 1.7508,1.90646 4.58106,2.22839 6.86767,3.20747 3.2996,0.97015 6.40487,2.49766 9.16746,4.56165 2.30519,1.71385 4.61541,3.44495 7.02567,4.99672 0.48333,0.49331 0.6842,1.3569 -0.34484,1.10311 -4.18581,0.0172 -8.46021,0.28714 -12.42655,1.80842 -0.87068,0.42958 -2.94961,0.59734 -2.41594,2.05143 1.70573,5.24094 6.90846,7.98445 11.41034,10.47723 1.74631,1.00496 3.75094,1.71221 5.44929,2.70606 1.80253,1.43162 3.58481,3.07164 5.60122,4.14016 0.80288,-0.64465 -0.60699,-1.57198 -0.93723,-2.16386 -2.16419,-2.33223 -4.18576,-4.91915 -6.75121,-6.80818 -2.46086,-1.81615 -5.24593,-3.24196 -7.67383,-5.11924 -0.59556,-0.69185 -1.31827,-1.51591 -1.5876,-2.33275 4.61735,-1.40795 9.52121,-1.55067 14.13968,-2.99118 0.89445,-0.58991 -0.48933,-1.62421 -0.80565,-2.21427 -3.37641,-4.30871 -8.10431,-7.18857 -12.4704,-10.36957 -3.35106,-2.34799 -7.56097,-3.21007 -10.79912,-5.6829 -3.47958,-5.88995 -6.31693,-12.209996 -8.95338,-18.540999 -2.08616,-6.232533 -6.28813,-11.467727 -10.3731,-16.507722 -5.86552,-6.942195 -13.44511,-12.245167 -21.47622,-16.386722 -3.5717,-1.435513 -7.44517,-1.705012 -11.22513,-2.108398 -1.70007,-0.927275 -3.11995,-2.383116 -4.95438,-3.139406 -2.98822,-1.526868 -6.14431,-3.156323 -9.58611,-3.154026 z"
         style="opacity:1;fill:#00618a;fill-opacity:1;stroke:none;stroke-width:0.25813007" />
    </g>
  </g>
</svg>
