<?xml version="1.0" encoding="UTF-8" standalone="no"?>
<!-- Created with Inkscape (http://www.inkscape.org/) -->

<svg
   xmlns:dc="http://purl.org/dc/elements/1.1/"
   xmlns:cc="http://creativecommons.org/ns#"
   xmlns:rdf="http://www.w3.org/1999/02/22-rdf-syntax-ns#"
   xmlns:svg="http://www.w3.org/2000/svg"
   xmlns="http://www.w3.org/2000/svg"
   xmlns:sodipodi="http://sodipodi.sourceforge.net/DTD/sodipodi-0.dtd"
   xmlns:inkscape="http://www.inkscape.org/namespaces/inkscape"
   width="26.458332mm"
   height="24.903629mm"
   viewBox="0 0 26.458332 24.90363"
   version="1.1"
   id="svg8"
   inkscape:version="0.92.4 (5da689c313, 2019-01-14)"
   sodipodi:docname="stock.svg">
  <defs
     id="defs2">
    <clipPath
       clipPathUnits="userSpaceOnUse"
       id="clipPath7698">
      <g
         inkscape:label="Clip"
         id="use7700">
        <path
           mask="none"
           clip-path="none"
           sodipodi:nodetypes="cccccccccc"
           inkscape:connector-curvature="0"
           id="path7709"
           d="m 8.3090699,1.3908283 -5.709299,4.8936851 0.05098,6.0151556 4.179936,-0.01858 0.05094,-4.4421529 3.100556,-0.05408 -0.04181,4.4824099 4.1799441,-0.01858 V 6.2845134 Z"
           style="fill:#ffd700;stroke:none;stroke-width:0.26458332px;stroke-linecap:butt;stroke-linejoin:miter;stroke-opacity:1" />
        <circle
           clip-path="none"
           mask="none"
           r="1.1214695"
           cy="5.1120691"
           cx="8.3406382"
           id="circle7711"
           style="opacity:1;fill:#ffffff;fill-opacity:1;stroke:none;stroke-width:0.44775638" />
      </g>
    </clipPath>
  </defs>
  <sodipodi:namedview
     id="base"
     pagecolor="#ffffff"
     bordercolor="#666666"
     borderopacity="1.0"
     inkscape:pageopacity="0.0"
     inkscape:pageshadow="2"
     inkscape:zoom="4.0945285"
     inkscape:cx="36.792173"
     inkscape:cy="52.284723"
     inkscape:document-units="mm"
     inkscape:current-layer="layer1"
     showgrid="false"
     inkscape:window-width="1366"
     inkscape:window-height="715"
     inkscape:window-x="-8"
     inkscape:window-y="22"
     inkscape:window-maximized="1"
     fit-margin-top="0"
     fit-margin-left="0"
     fit-margin-right="0"
     fit-margin-bottom="0" />
  <metadata
     id="metadata5">
    <rdf:RDF>
      <cc:Work
         rdf:about="">
        <dc:format>image/svg+xml</dc:format>
        <dc:type
           rdf:resource="http://purl.org/dc/dcmitype/StillImage" />
        <dc:title></dc:title>
      </cc:Work>
    </rdf:RDF>
  </metadata>
  <g
     inkscape:label="Layer 1"
     inkscape:groupmode="layer"
     id="layer1"
     transform="translate(-31.728213,-61.564898)">
    <g
       id="g7826"
       transform="matrix(0.94810495,0,0,0.94810495,2.3330655,3.8411011)">
      <g
         transform="matrix(0.28325289,0,0,0.28325289,-2.4833508,56.617065)"
         id="g7801">
        <path
           style="fill:#ff0000;stroke:none;stroke-width:0.26458332px;stroke-linecap:butt;stroke-linejoin:miter;stroke-opacity:1"
           d="m 121.43401,26.421665 13.24166,-7.020739 c 1.95862,-0.677101 3.75267,-0.64107 5.0415,1.584201 l 25.0986,53.821217 c 3.14321,8.942556 8.55463,7.678194 13.80369,7.144434 l 28.89663,-12.169804 c 2.64688,-0.117394 4.99383,0.193682 6.67377,1.457623 l -40.03445,17.693861 c -6.64384,1.3474 -9.54279,-1.986308 -11.89441,-6.00419 L 136.13046,26.8203 c -0.53922,-1.762981 -1.26851,-1.435223 -2.02964,-0.757228 l -10.6333,5.760215 c -1.91257,-0.837235 -3.68263,-1.226617 -2.03351,-5.401622 z"
           id="path7757"
           inkscape:connector-curvature="0"
           sodipodi:nodetypes="ccccccccccccc" />
        <path
           style="opacity:1;fill:#ff0000;fill-opacity:1;stroke:none;stroke-width:0.40780708"
           d="m 163.81658,84.364437 c -6.86371,-0.04017 -11.9368,7.761007 -9.40664,14.058182 1.44419,4.641241 6.37605,7.662571 11.17917,6.826501 7.15137,-0.29266 11.61677,-9.279396 8.00528,-15.321143 -1.81158,-3.603109 -5.76541,-5.813703 -9.77781,-5.56354 z m 0.50498,7.070515 c 3.28855,-0.24855 4.75069,4.407417 2.17046,6.254103 -2.23439,1.765891 -6.25314,-0.0429 -5.72842,-3.130237 0.0672,-1.841027 1.76575,-3.213366 3.55796,-3.123866 z"
           id="path7763"
           inkscape:connector-curvature="0" />
        <rect
           style="opacity:1;fill:#ff0000;fill-opacity:1;stroke:none;stroke-width:0.26458332"
           id="rect7765-0"
           width="39.149479"
           height="24.876234"
           x="125.44942"
           y="116.71224"
           ry="6.1171064"
           transform="rotate(-23.130504)" />
        <rect
           style="opacity:1;fill:#ff0000;fill-opacity:1;stroke:none;stroke-width:0.26458332"
           id="rect7765-0-4"
           width="39.149479"
           height="24.876234"
           x="125.16587"
           y="87.111519"
           ry="6.1171064"
           transform="rotate(-23.130504)" />
      </g>
      <path
         style="fill:#ffff00;stroke:none;stroke-width:0.07494399px;stroke-linecap:butt;stroke-linejoin:miter;stroke-opacity:1"
         d="m 31.913183,64.101078 3.750739,-1.988645 c 0.554785,-0.19179 1.062955,-0.181585 1.428019,0.44873 l 7.109251,15.245015 c 0.890324,2.533005 2.423124,2.174871 3.909935,2.023682 l 8.185054,-3.447132 c 0.749737,-0.03325 1.414517,0.05486 1.890365,0.412875 L 46.846672,81.807441 C 44.964786,82.189096 44.14365,81.244813 43.477546,80.106737 L 36.075995,64.213992 C 35.92326,63.714623 35.716686,63.807461 35.501094,63.999505 l -3.011913,1.631598 C 31.94744,65.393954 31.446065,65.28366 31.913183,64.101078 Z"
         id="path7803"
         inkscape:connector-curvature="0"
         sodipodi:nodetypes="ccccccccccccc" />
      <path
         style="opacity:1;fill:#ffff00;fill-opacity:1;stroke:none;stroke-width:0.11551253"
         d="m 43.918169,80.513536 c -1.944166,-0.01138 -3.381133,2.198327 -2.664458,3.98202 0.409071,1.314645 1.806035,2.170446 3.166532,1.933626 2.025646,-0.0829 3.290484,-2.628415 2.267519,-4.339758 -0.513135,-1.020591 -1.633069,-1.646748 -2.769593,-1.575888 z m 0.143037,2.002743 c 0.931491,-0.0704 1.345647,1.248414 0.614789,1.771493 -0.632897,0.500194 -1.77122,-0.01215 -1.622591,-0.886649 0.01903,-0.521476 0.500153,-0.910195 1.007802,-0.884844 z"
         id="path7805"
         inkscape:connector-curvature="0" />
      <rect
         style="opacity:1;fill:#ffff00;fill-opacity:1;stroke:none;stroke-width:0.07494399"
         id="rect7807"
         width="11.089203"
         height="7.0462651"
         x="11.009492"
         y="84.149315"
         ry="1.7326881"
         transform="rotate(-23.130504)" />
      <rect
         style="opacity:1;fill:#ffff00;fill-opacity:1;stroke:none;stroke-width:0.07494399"
         id="rect7809"
         width="11.089203"
         height="7.0462651"
         x="10.929176"
         y="75.764824"
         ry="1.7326881"
         transform="rotate(-23.130504)" />
    </g>
  </g>
</svg>
